<?xml version="1.0" standalone="no"?>
<!DOCTYPE svg PUBLIC "-//W3C//DTD SVG 20010904//EN"
 "http://www.w3.org/TR/2001/REC-SVG-20010904/DTD/svg10.dtd">
<svg version="1.0" xmlns="http://www.w3.org/2000/svg"
 width="640.000000pt" height="640.000000pt" viewBox="0 0 640.000000 640.000000"
 preserveAspectRatio="xMidYMid meet">
<metadata>
Created by potrace 1.11, written by Peter Selinger 2001-2013
</metadata>
<g transform="translate(0.000000,640.000000) scale(0.100000,-0.100000)"
fill="#000000" stroke="none">
<path d="M3098 5115 c-2 -2 -22 -6 -46 -10 -23 -3 -77 -17 -118 -31 -42 -13
-83 -26 -92 -27 -10 -2 -71 -20 -137 -41 -280 -88 -371 -116 -390 -120 -11 -3
-39 -11 -63 -20 -23 -8 -44 -16 -47 -16 -5 -1 -7 -1 -70 -21 -22 -7 -44 -14
-50 -15 -5 -1 -48 -14 -95 -29 -47 -15 -89 -28 -95 -29 -5 -1 -57 -17 -115
-36 -58 -19 -110 -35 -116 -36 -17 -3 -216 -64 -244 -75 -14 -5 -34 -11 -45
-14 -11 -2 -56 -16 -100 -30 -44 -15 -88 -28 -97 -31 -10 -2 -26 -6 -35 -8
-10 -3 -45 -13 -78 -24 -33 -11 -94 -30 -135 -42 -41 -12 -82 -24 -90 -27 -8
-3 -19 -7 -25 -9 -5 -1 -48 -14 -95 -29 -47 -15 -89 -28 -95 -29 -14 -3 -189
-57 -363 -113 -118 -38 -149 -52 -180 -82 -65 -62 -77 -88 -76 -166 0 -138 53
-193 243 -254 231 -74 385 -121 398 -121 7 0 13 -4 13 -10 0 -5 -4 -10 -10
-10 -5 0 -10 -5 -10 -11 0 -6 -11 -25 -24 -42 -33 -45 -65 -110 -93 -192 -13
-38 -23 -72 -23 -75 0 -3 -2 -18 -5 -35 -3 -16 -7 -44 -9 -61 -2 -23 -20 -48
-63 -90 -74 -73 -102 -139 -98 -229 2 -33 6 -71 9 -83 8 -37 51 -104 89 -139
32 -30 34 -35 27 -70 -4 -21 -10 -45 -13 -53 -3 -8 -8 -31 -11 -50 -3 -19 -22
-105 -41 -190 -47 -206 -66 -290 -71 -319 -3 -12 -12 -53 -20 -90 -9 -36 -18
-77 -20 -91 -3 -14 -9 -41 -14 -60 -5 -19 -12 -47 -15 -62 -3 -16 -7 -38 -10
-50 -2 -13 -13 -62 -23 -110 -11 -49 -15 -88 -10 -88 5 0 7 -3 4 -8 -9 -15 23
-70 58 -97 29 -22 48 -28 108 -31 40 -3 79 -7 85 -9 7 -3 13 0 13 6 0 6 4 8 9
5 10 -6 78 -8 174 -4 37 2 67 1 67 -2 0 -3 24 -4 52 -3 29 1 53 2 53 3 0 0 34
2 76 3 66 2 80 6 112 30 65 49 79 118 49 232 -6 22 -14 52 -17 68 -11 56 -16
81 -31 146 -9 36 -18 77 -20 91 -3 14 -9 41 -14 60 -5 19 -11 46 -14 60 -2 14
-11 55 -20 91 -8 37 -17 78 -20 90 -2 13 -11 54 -20 90 -8 37 -18 79 -21 93
-8 40 -13 65 -31 141 -35 157 -37 138 16 193 64 66 89 134 85 227 -4 86 -35
152 -101 211 -46 42 -50 55 -41 109 16 94 59 169 139 248 48 48 62 56 74 47 8
-7 14 -10 14 -7 0 4 19 -1 43 -9 23 -9 51 -17 61 -19 10 -3 35 -10 55 -17 20
-7 38 -13 41 -13 13 -3 127 -37 140 -42 8 -3 17 -7 20 -8 21 -6 97 -29 105
-31 13 -3 257 -78 360 -111 44 -13 100 -31 125 -38 25 -7 126 -38 225 -70 99
-31 188 -58 198 -60 16 -4 65 -19 107 -33 8 -3 20 -6 27 -8 6 -1 47 -13 90
-27 158 -50 310 -97 368 -112 77 -21 270 -27 341 -10 52 12 61 14 67 16 1 0 9
2 17 4 24 5 223 65 240 72 8 3 20 7 25 8 12 3 204 62 318 98 43 14 79 25 80
24 1 0 31 9 67 21 36 11 112 35 170 52 58 17 116 35 130 40 14 4 59 18 100 30
41 13 93 29 115 37 22 8 48 17 57 18 10 2 77 22 150 45 73 22 178 55 233 71
55 17 111 34 125 39 28 10 172 54 180 55 9 1 154 46 170 52 8 3 20 7 27 9 7 1
45 12 85 25 40 13 75 24 78 24 8 1 206 63 357 111 109 35 151 54 182 81 23 19
41 41 41 48 0 7 4 15 9 17 6 2 16 24 22 50 27 99 -28 220 -118 264 -36 17
-452 150 -502 160 -14 3 -29 8 -35 12 -6 3 -18 8 -26 9 -8 1 -42 12 -75 23
-33 11 -69 23 -80 25 -11 3 -101 30 -200 60 -99 31 -187 58 -195 60 -8 2 -27
8 -42 14 -16 6 -28 8 -28 5 0 -2 -9 0 -21 6 -11 6 -28 13 -37 15 -9 2 -89 26
-177 53 -88 27 -200 62 -250 77 -49 14 -97 29 -105 32 -8 4 -42 14 -75 24 -33
9 -121 36 -195 59 -74 23 -162 50 -195 60 -146 45 -464 143 -510 158 -27 8
-54 16 -60 18 -5 1 -30 7 -55 15 -25 7 -52 14 -60 16 -18 5 -248 12 -252 8z"/>
<path d="M1419 3033 c0 -10 -2 -27 -4 -38 -4 -19 -10 -69 -20 -155 -4 -37 -12
-101 -20 -160 -3 -19 -7 -54 -10 -77 -3 -24 -7 -62 -10 -85 -3 -24 -8 -61 -11
-83 -9 -75 -14 -110 -19 -155 -3 -25 -7 -61 -10 -80 -3 -19 -7 -55 -10 -80 -3
-25 -9 -65 -12 -90 -4 -25 -7 -77 -6 -116 0 -65 3 -76 36 -126 85 -128 249
-228 522 -320 66 -22 127 -41 135 -43 8 -2 62 -14 120 -28 58 -14 119 -27 135
-28 17 -2 36 -7 43 -12 6 -5 12 -7 12 -5 0 3 24 1 53 -4 138 -22 249 -36 447
-53 36 -4 137 -8 225 -11 88 -3 165 -5 170 -5 31 -1 386 12 420 15 22 2 76 7
120 11 44 3 91 8 105 10 14 2 43 6 65 9 22 3 60 8 85 11 25 3 52 8 60 10 8 2
33 7 55 10 45 6 60 9 125 24 25 5 56 12 70 15 25 5 32 7 105 26 22 6 48 12 57
15 46 11 240 81 306 112 159 72 289 177 335 268 21 43 24 61 22 127 -2 43 -6
90 -9 105 -5 28 -12 73 -21 151 -3 23 -7 61 -10 85 -13 98 -16 124 -20 157 -2
19 -7 53 -10 75 -3 22 -7 63 -10 90 -3 28 -7 59 -9 70 -2 11 -7 47 -11 80 -3
33 -9 76 -11 95 -5 37 -10 81 -19 152 -3 23 -7 44 -10 46 -2 3 -31 -3 -62 -14
-32 -10 -60 -19 -63 -19 -10 -2 -188 -56 -285 -87 -55 -18 -102 -33 -105 -33
-18 -3 -132 -39 -165 -51 -22 -9 -41 -15 -43 -15 -1 1 -35 -9 -75 -21 -39 -12
-74 -23 -77 -23 -9 -2 -184 -56 -210 -65 -39 -14 -169 -51 -177 -52 -5 0 -15
-4 -24 -9 -9 -4 -27 -10 -40 -13 -13 -2 -50 -14 -81 -25 -32 -11 -58 -18 -58
-15 0 3 -8 0 -17 -5 -10 -5 -34 -12 -53 -15 -19 -3 -53 -9 -75 -13 -54 -9
-268 -10 -330 -1 -64 10 -144 30 -270 70 -55 18 -102 33 -105 33 -29 7 -98 27
-110 32 -8 4 -17 7 -20 8 -3 1 -38 11 -79 24 -41 12 -82 24 -92 26 -10 2 -26
8 -36 13 -10 6 -22 10 -28 11 -10 1 -102 27 -145 41 -55 19 -266 84 -277 86
-13 2 -109 32 -133 41 -18 7 -29 10 -55 17 -25 5 -184 55 -205 63 -38 15 -60
14 -61 -4z"/>
</g>
</svg>
